<svg width="33" height="33" viewBox="0 0 33 33" fill="none" xmlns="http://www.w3.org/2000/svg">
<path d="M14.502 14.9531C10.3793 14.9531 7.02539 11.5992 7.02539 7.47656C7.02539 3.35395 10.3793 0 14.502 0C18.6246 0 21.9785 3.35395 21.9785 7.47656C21.9785 11.5992 18.6246 14.9531 14.502 14.9531Z" fill="white"/>
<path d="M17.4023 20.4317C17.4023 18.7765 17.867 17.2279 18.6726 15.9092C17.4148 16.534 15.9991 16.8868 14.502 16.8868C12.5601 16.8868 10.7539 16.2955 9.2536 15.2836C7.39851 16.0027 5.69669 17.107 4.24759 18.5561C1.50846 21.2952 1.68372e-10 24.9369 1.68372e-10 28.8105C1.68372e-10 28.8105 -2.03453e-05 31.5664 1.68372e-10 32.0333C2.03457e-05 32.5001 0.432867 33.0001 0.966797 33.0001C0.966797 33.0001 27.4355 33.0001 28.0371 33.0001C28.6387 33.0001 29.0039 32.5001 29.0039 32.0333C29.0039 31.0001 29.0039 28.8105 29.0039 28.8105C29.0039 28.7525 29.0023 28.6942 29.0016 28.636C28.0946 28.9574 27.1192 29.1329 26.1035 29.1329C21.3057 29.1329 17.4023 25.2295 17.4023 20.4317Z" fill="white"/>
<path d="M26.1035 13.6641C22.3719 13.6641 19.3359 16.7 19.3359 20.4316C19.3359 24.1633 22.3719 27.1992 26.1035 27.1992C29.8352 27.1992 32.8711 24.1633 32.8711 20.4316C32.8711 16.7 29.8352 13.6641 26.1035 13.6641ZM28.0371 21.3984H27.0703V22.3652C27.0703 22.8992 26.6374 23.332 26.1035 23.332C25.5696 23.332 25.1367 22.8992 25.1367 22.3652V21.3984H24.1699C23.636 21.3984 23.2031 20.9656 23.2031 20.4316C23.2031 19.8977 23.636 19.4648 24.1699 19.4648H25.1367V18.498C25.1367 17.9641 25.5696 17.5312 26.1035 17.5312C26.6374 17.5312 27.0703 17.9641 27.0703 18.498V19.4648H28.0371C28.571 19.4648 29.0039 19.8977 29.0039 20.4316C29.0039 20.9656 28.571 21.3984 28.0371 21.3984Z" fill="white"/>
</svg>
