<svg width="122" height="122" viewBox="0 0 122 122" fill="none" xmlns="http://www.w3.org/2000/svg">
<path d="M60.9999 12.1856C34.0802 12.1856 12.2575 34.0083 12.2575 60.928C12.2575 87.8477 34.0802 109.67 60.9999 109.67C87.9196 109.67 109.742 87.8477 109.742 60.928C109.742 34.0083 87.9196 12.1856 60.9999 12.1856ZM0.0718994 60.928C0.0718994 27.2784 27.3503 0 60.9999 0C94.6496 0 121.928 27.2784 121.928 60.928C121.928 94.5777 94.6496 121.856 60.9999 121.856C27.3503 121.856 0.0718994 94.5777 0.0718994 60.928ZM89.419 41.1422C91.934 43.3778 92.1605 47.2289 89.925 49.7439L57.43 86.3007C56.2738 87.6014 54.6165 88.3456 52.8762 88.3456C51.1359 88.3456 49.4786 87.6014 48.3224 86.3007L32.0749 68.0223C29.8393 65.5073 30.0659 61.6562 32.5809 59.4206C35.0959 57.1851 38.947 57.4116 41.1825 59.9266L52.8762 73.082L80.8173 41.6482C83.0529 39.1332 86.904 38.9066 89.419 41.1422Z" fill="white"/>
</svg>
