<svg width="37" height="37" viewBox="0 0 37 37" fill="none" xmlns="http://www.w3.org/2000/svg">
<path fill-rule="evenodd" clip-rule="evenodd" d="M19.4053 28.3644C21.6915 27.1786 29.5833 22.5252 29.5833 14.7917C29.5833 8.83159 24.7517 4 18.7917 4C12.8316 4 8 8.83159 8 14.7917C8 22.5252 15.8918 27.1786 18.178 28.3644C18.5679 28.5666 19.0155 28.5666 19.4053 28.3644ZM18.7915 19.4167C21.3458 19.4167 23.4165 17.3461 23.4165 14.7917C23.4165 12.2374 21.3458 10.1667 18.7915 10.1667C16.2372 10.1667 14.1665 12.2374 14.1665 14.7917C14.1665 17.3461 16.2372 19.4167 18.7915 19.4167Z" fill="#2B2E4D"/>
<path d="M28.1375 26.3542C29.0847 27.0573 29.5833 27.8549 29.5833 28.6667C29.5833 29.4786 29.0847 30.2762 28.1375 30.9792C27.1904 31.6823 25.828 32.2662 24.1875 32.6721C22.547 33.078 20.686 33.2917 18.7917 33.2917C16.8973 33.2917 15.0364 33.078 13.3958 32.6721C11.7553 32.2662 10.393 31.6823 9.44581 30.9792C8.49864 30.2762 8 29.4786 8 28.6667C8 27.8549 8.49864 27.0573 9.44581 26.3542" stroke="#2B2E4D" stroke-width="3.08333" stroke-linecap="round"/>
</svg>
