<svg width="19" height="20" viewBox="0 0 19 20" fill="none" xmlns="http://www.w3.org/2000/svg">
<path d="M1 13.229C0.447715 13.229 0 13.6767 0 14.229C0 14.7813 0.447715 15.229 1 15.229V13.229ZM3.64579 7.17352L2.64579 7.17352V7.17352H3.64579ZM15.9928 7.17352H16.9928V7.17352L15.9928 7.17352ZM11.345 17.7567L12.21 18.2585C12.3895 17.9491 12.3901 17.5675 12.2116 17.2576C12.0331 16.9477 11.7027 16.7567 11.345 16.7567V17.7567ZM8.29357 17.7567V16.7567C7.93593 16.7567 7.60553 16.9477 7.42703 17.2576C7.24853 17.5675 7.24912 17.9491 7.42857 18.2585L8.29357 17.7567ZM18.6386 13.229H1V15.229H18.6386V13.229ZM1 15.229C3.01352 15.229 4.64579 13.5967 4.64579 11.5832H2.64579C2.64579 12.4921 1.90895 13.229 1 13.229V15.229ZM4.64579 11.5832V7.17352H2.64579V11.5832H4.64579ZM4.64579 7.17352C4.64579 4.31626 6.96206 2 9.81931 2V0C5.85749 0 2.64579 3.21169 2.64579 7.17352L4.64579 7.17352ZM9.81931 2C12.6766 2 14.9928 4.31626 14.9928 7.17352L16.9928 7.17352C16.9928 3.21169 13.7811 0 9.81931 0V2ZM14.9928 7.17352V11.5832H16.9928V7.17352H14.9928ZM14.9928 11.5832C14.9928 13.5967 16.6251 15.229 18.6386 15.229V13.229C17.7297 13.229 16.9928 12.4921 16.9928 11.5832H14.9928ZM10.48 17.2549C10.3434 17.4905 10.0916 17.6355 9.81931 17.6355V19.6355C10.8047 19.6355 11.7156 19.1108 12.21 18.2585L10.48 17.2549ZM9.81931 17.6355C9.54696 17.6355 9.29522 17.4905 9.15857 17.2549L7.42857 18.2585C7.92302 19.1108 8.83389 19.6355 9.81931 19.6355V17.6355ZM8.29357 18.7567H11.345V16.7567H8.29357V18.7567Z" fill="#F3F3F3"/>
</svg>
