<svg width="29" height="29" viewBox="0 0 29 29" fill="none" xmlns="http://www.w3.org/2000/svg">
<path d="M14.5 2.9C8.0935 2.9 2.9 8.0935 2.9 14.5C2.9 20.9065 8.0935 26.1 14.5 26.1C20.9065 26.1 26.1 20.9065 26.1 14.5C26.1 8.0935 20.9065 2.9 14.5 2.9ZM0 14.5C0 6.49187 6.49187 0 14.5 0C22.5081 0 29 6.49187 29 14.5C29 22.5081 22.5081 29 14.5 29C6.49187 29 0 22.5081 0 14.5Z" fill="white"/>
<path d="M14.5 17.4C13.6992 17.4 13.05 16.7508 13.05 15.95V14.5C13.05 13.6992 13.6992 13.05 14.5 13.05C15.3008 13.05 15.95 13.6992 15.95 14.5V15.95C15.95 16.7508 15.3008 17.4 14.5 17.4Z" fill="white"/>
<path d="M12.325 21.025C12.325 19.8238 13.2988 18.85 14.5 18.85C15.7012 18.85 16.675 19.8238 16.675 21.025C16.675 22.2262 15.7012 23.2 14.5 23.2C13.2988 23.2 12.325 22.2262 12.325 21.025Z" fill="white"/>
<path d="M15.0654 8.42649C13.6777 8.36041 12.5141 9.13558 12.3053 10.3884C12.1736 11.1783 11.4265 11.7119 10.6366 11.5803C9.8467 11.4486 9.31308 10.7015 9.44473 9.91163C9.96093 6.81443 12.7848 5.4146 15.2033 5.52977C16.4422 5.58876 17.7155 6.03344 18.6958 6.94953C19.7006 7.88839 20.3 9.23326 20.3 10.875C20.3 12.7474 19.5633 14.1359 18.2949 14.9815C17.1304 15.7579 15.7028 15.95 14.5 15.95C13.6992 15.95 13.05 15.3008 13.05 14.5C13.05 13.6992 13.6992 13.05 14.5 13.05C15.4722 13.05 16.2196 12.8797 16.6863 12.5685C17.0492 12.3266 17.4 11.9026 17.4 10.875C17.4 9.97924 17.0932 9.42099 16.7159 9.06844C16.3142 8.69313 15.7296 8.45812 15.0654 8.42649Z" fill="white"/>
</svg>
